<svg xmlns="http://www.w3.org/2000/svg" xmlns:xlink="http://www.w3.org/1999/xlink" preserveAspectRatio="xMidYMid meet" width="100" height="100" viewBox="0 0 100 100" style="width:100%;height:100%"><defs><animateMotion repeatCount="indefinite" dur="3s" begin="0s" xlink:href="#_R_G_L_0_G_D_0_P_0_G_0_T_0" fill="freeze" keyTimes="0;0.1944444;0.4055556;0.6111111;0.8222222;0.9944444;1" path="M894.53 434.26 C894.53,434.26 723.53,434.26 723.53,434.26 C723.53,434.26 1031.53,486.26 1031.53,486.26 C1031.53,486.26 894.53,434.26 894.53,434.26 C894.53,434.26 776.53,361.26 776.53,361.26 C776.53,361.26 894.53,434.26 894.53,434.26 C894.53,434.26 894.53,434.26 894.53,434.26 " keyPoints="0;0.19;0.53;0.69;0.85;1;1" keySplines="0.72 0 0.28 1;0.72 0 0.28 1;0.72 0 0.28 1;0.72 0 0.28 1;0.72 0 0.28 1;0 0 0 0" calcMode="spline"/><animateMotion repeatCount="indefinite" dur="3s" begin="0s" xlink:href="#_R_G_L_0_G_D_0_P_0_G_0_T_0" fill="freeze" keyTimes="0;0.1944444;0.4055556;0.6111111;0.8222222;0.9944444;1" path="M894.53 434.26 C894.53,434.26 723.53,434.26 723.53,434.26 C723.53,434.26 1031.53,486.26 1031.53,486.26 C1031.53,486.26 894.53,434.26 894.53,434.26 C894.53,434.26 776.53,361.26 776.53,361.26 C776.53,361.26 894.53,434.26 894.53,434.26 C894.53,434.26 894.53,434.26 894.53,434.26 " keyPoints="0;0.19;0.53;0.69;0.85;1;1" keySplines="0.72 0 0.28 1;0.72 0 0.28 1;0.72 0 0.28 1;0.72 0 0.28 1;0.72 0 0.28 1;0 0 0 0" calcMode="spline"/><animateMotion repeatCount="indefinite" dur="3s" begin="0s" xlink:href="#_R_G_L_0_G" fill="freeze" keyTimes="0;0.1944444;0.4055556;0.6111111;0.8222222;0.9944444;1" path="M49.88 50.08 C49.88,50.08 45,50.08 45,50.08 C45,50.08 55,59.08 55,59.08 C55,59.08 49.88,50.08 49.88,50.08 C49.88,50.08 45,45 45,45 C45,45 49.88,50.08 49.88,50.08 C49.88,50.08 49.88,50.08 49.88,50.08 " keyPoints="0;0.11;0.43;0.67;0.84;1;1" keySplines="0.72 0 0.28 1;0.72 0 0.28 1;0.72 0 0.28 1;0.72 0 0.28 1;0.72 0 0.28 1;0 0 0 0" calcMode="spline"/><animateTransform repeatCount="indefinite" dur="3s" begin="0s" xlink:href="#_R_G_L_0_G" fill="freeze" attributeName="transform" from="0.09 0.09" to="0.09 0.09" type="scale" additive="sum" keyTimes="0;1" values="0.09 0.09;0.09 0.09" keySplines="0 0 1 1" calcMode="spline"/><animateTransform repeatCount="indefinite" dur="3s" begin="0s" xlink:href="#_R_G_L_0_G" fill="freeze" attributeName="transform" from="-894.53 -434.261" to="-894.53 -434.261" type="translate" additive="sum" keyTimes="0;1" values="-894.53 -434.261;-894.53 -434.261" keySplines="0 0 1 1" calcMode="spline"/><animate attributeType="XML" attributeName="opacity" dur="3s" from="0" to="1" xlink:href="#time_group"/></defs><g id="_R_G"><g id="_R_G_L_0_G"><g id="_R_G_L_0_G_D_0_P_0_G_0_T_0"><g id="_R_G_L_0_G_D_0_P_0_G_0_T_0"><path id="_R_G_L_0_G_D_0_P_0" fill="#ffffff" fill-opacity="1" fill-rule="nonzero" d=" M0 -65.16 C-35.93,-65.16 -65.16,-35.93 -65.16,0 C-65.16,35.93 -35.93,65.16 0,65.16 C35.93,65.16 65.16,35.93 65.16,0 C65.16,-35.93 35.93,-65.16 0,-65.16z  M0 135.61 C-9.2,135.61 -18.4,134.68 -27.33,132.85 C-36.04,131.07 -44.6,128.41 -52.78,124.95 C-60.82,121.55 -68.57,117.35 -75.82,112.45 C-83,107.6 -89.75,102.03 -95.89,95.89 C-102.03,89.75 -107.6,83 -112.45,75.82 C-117.35,68.57 -121.55,60.82 -124.95,52.79 C-128.41,44.6 -131.07,36.04 -132.85,27.33 C-134.68,18.4 -135.61,9.2 -135.61,0 C-135.61,-9.2 -134.68,-18.4 -132.85,-27.33 C-131.07,-36.04 -128.41,-44.6 -124.95,-52.78 C-121.55,-60.82 -117.35,-68.57 -112.45,-75.82 C-107.6,-83 -102.03,-89.75 -95.89,-95.89 C-89.75,-102.03 -83,-107.6 -75.82,-112.45 C-68.57,-117.35 -60.82,-121.55 -52.78,-124.95 C-44.6,-128.41 -36.04,-131.07 -27.33,-132.85 C-18.4,-134.68 -9.2,-135.61 0,-135.61 C9.2,-135.61 18.4,-134.68 27.33,-132.85 C36.04,-131.07 44.6,-128.41 52.79,-124.95 C60.82,-121.55 68.57,-117.35 75.82,-112.45 C83,-107.6 89.75,-102.03 95.89,-95.89 C102.03,-89.75 107.6,-83 112.45,-75.82 C117.35,-68.57 121.55,-60.82 124.95,-52.78 C128.41,-44.6 131.07,-36.04 132.85,-27.33 C134.68,-18.4 135.61,-9.2 135.61,0 C135.61,9.2 134.68,18.4 132.85,27.33 C131.07,36.04 128.41,44.6 124.95,52.79 C121.55,60.82 117.35,68.57 112.45,75.82 C107.6,83 102.03,89.75 95.89,95.89 C89.75,102.03 83,107.6 75.82,112.45 C68.57,117.35 60.82,121.55 52.79,124.95 C44.6,128.41 36.04,131.07 27.33,132.85 C18.4,134.68 9.2,135.61 0,135.61z "/></g></g><path id="_R_G_L_0_G_D_1_P_0" fill="#0062fe" fill-opacity="1" fill-rule="nonzero" d=" M560.53 432.78 C562.06,435.24 671.31,608.37 902.6,608.37 C1119.99,608.37 1229.11,435.24 1230.64,432.78 C1229.11,430.33 1119.99,257.19 902.6,257.19 C671.31,257.19 562.06,430.33 560.53,432.78z  M877.23 858.15 C877.23,858.15 490.22,471.13 490.22,471.13 C479.19,460.1 478.74,442.5 488.88,430.94 C497.05,415.66 556.68,310.54 684.62,245.83 C742.98,216.31 814.99,195.2 902.6,194.34 C952.03,193.85 996.9,201.61 1037.2,214.6 C1037.2,214.6 872.84,50.25 872.84,50.25 C867.1,44.5 864.22,36.96 864.22,29.43 C864.22,21.9 867.1,14.37 872.84,8.62 C884.34,-2.87 902.97,-2.87 914.47,8.62 C914.47,8.62 1301.48,395.64 1301.48,395.64 C1307.23,401.38 1310.1,408.92 1310.1,416.45 C1310.1,422.65 1308.16,428.85 1304.27,434.05 C1293.35,452.89 1161.36,671.23 906.99,671.25 C905.52,671.25 904.08,671.24 902.6,671.23 C844.68,670.66 793.57,661.24 748.72,646.39 C748.72,646.39 918.86,816.53 918.86,816.53 C930.35,828.02 930.35,846.66 918.86,858.15 C913.11,863.9 905.58,866.77 898.04,866.77 C890.51,866.77 882.98,863.9 877.23,858.15z "/></g></g><g id="time_group"/></svg>