<svg xmlns="http://www.w3.org/2000/svg" width="1545.097" height="866.769" viewBox="0 0 1545.097 866.769">
  <g id="Group_38" data-name="Group 38" transform="translate(-1072.794 -646.156)">
    <g id="Group_36" data-name="Group 36" transform="translate(-100.197 -56.208)">
      <g id="Group_1" data-name="Group 1" transform="translate(1172.991 702.365)">
        <g id="logo" transform="translate(481.596 0)">
          <path id="eye" d="M395.635,858.148,8.621,471.133a29.432,29.432,0,0,1-1.336-40.2c8.163-15.276,67.8-120.4,195.739-185.11C261.381,216.308,333.39,195.2,421,194.338A422.772,422.772,0,0,1,555.6,214.6L391.247,50.244A29.433,29.433,0,0,1,432.871,8.62L819.886,395.635a29.44,29.44,0,0,1,2.783,38.413c-10.916,18.84-142.91,237.185-397.278,237.2-1.469,0-2.912-.007-4.389-.022-57.923-.571-109.029-9.991-153.876-24.839L437.26,816.524a29.433,29.433,0,0,1-41.624,41.624ZM78.933,432.783C80.468,435.235,189.715,608.374,421,608.374c217.391,0,326.511-173.139,328.046-175.591C747.512,430.331,638.393,257.192,421,257.192,189.715,257.192,80.468,430.331,78.933,432.783Z" transform="translate(0 0)" fill="#0062fe"/>
          <path id="iris" d="M135.608,271.217a136.61,136.61,0,0,1-27.33-2.755,134.867,134.867,0,0,1-48.49-20.4,136,136,0,0,1-49.132-59.664,134.924,134.924,0,0,1-7.9-25.455,136.928,136.928,0,0,1,0-54.66,134.866,134.866,0,0,1,20.4-48.49A136.005,136.005,0,0,1,82.824,10.657a134.92,134.92,0,0,1,25.455-7.9,136.928,136.928,0,0,1,54.66,0,134.867,134.867,0,0,1,48.49,20.4A136,136,0,0,1,260.56,82.824a134.928,134.928,0,0,1,7.9,25.455,136.928,136.928,0,0,1,0,54.66,134.868,134.868,0,0,1-20.4,48.49,136,136,0,0,1-59.664,49.132,134.928,134.928,0,0,1-25.455,7.9A136.609,136.609,0,0,1,135.608,271.217Zm0-200.767a65.158,65.158,0,1,0,65.158,65.158A65.232,65.232,0,0,0,135.608,70.451Z" transform="translate(277.325 298.652)" fill="#fff"/>
        </g>
        <path id="Path_8" data-name="Path 8" d="M641.65,161.091v-178c0-55.853-36.017-85.607-85.085-85.607-41.237,0-67.337,15.66-83,44.369V-95.729H408.842v256.82H476.7V13.889c0-39.149,17.226-58.985,52.721-58.985,32.364,0,43.847,10.962,43.847,50.633V161.091Zm262.562,81.334V-16.908c0-55.853-36.018-85.607-85.085-85.607-41.237,0-67.337,15.66-83,44.369V-95.729H671.4v256.82h67.859V13.889c0-39.149,17.226-58.985,52.721-58.985,32.363,0,43.847,10.962,43.847,50.633V242.425Z" transform="translate(640.884 400.864)" fill="#fff"/>
        <path id="Path_5" data-name="Path 5" d="M186.438,214.363l117.448-346.6H228.72L153.553,111.008,77.864-132.24H.609l117.448,346.6Zm205.143,0V-42.457H323.722v256.82Zm0-287.618v-63.161H323.722v63.161ZM642.138,35.319c-3.654-55.331-37.062-84.563-111.184-84.563-78.3,0-108.052,32.886-108.052,76.211,0,22.968,8.352,42.8,32.364,57.941,18.27,11.484,42.281,18.792,85.607,29.232,21.924,5.22,41.237,10.962,41.237,29.232,0,19.314-21.4,26.622-45.413,26.622-32.885,0-53.243-14.094-53.243-38.105H413.5c1.044,52.2,44.891,89.261,123.712,89.261,73.079,0,112.228-31.842,112.228-85.085,0-33.408-15.138-51.155-42.281-62.117-19.836-7.83-47.5-13.572-76.733-21.924-27.666-7.83-41.759-14.094-41.759-29.232s14.616-21.4,40.193-21.4c30.8,0,44.369,8.874,48.023,33.929Zm96.047,179.043V-42.457H670.325v256.82Zm0-287.618v-63.161H670.325v63.161Z" transform="translate(-0.609 347.592)" fill="#fff"/>
      </g>
      <g id="Group_37" data-name="Group 37">
        <text id="studios" transform="translate(2633.197 1388.208)" fill="#fff" font-size="152" font-family="CoolveticaRg-Regular, Coolvetica"><tspan x="-478.04" y="0">studios</tspan></text>
      </g>
    </g>
  </g>
</svg>
