<svg xmlns="http://www.w3.org/2000/svg" width="87.611" height="49.148" viewBox="0 0 87.611 49.148">
  <g id="Group_1" data-name="Group 1" transform="translate(0 -0.001)">
    <g id="logo" transform="translate(27.308 0.001)">
      <path id="eye" d="M22.433,48.659.489,26.714a1.669,1.669,0,0,1-.076-2.279,26.839,26.839,0,0,1,11.1-10.5,27.631,27.631,0,0,1,12.36-2.92A23.969,23.969,0,0,1,31.5,12.167L22.184,2.849A1.669,1.669,0,1,1,24.545.489L46.49,22.433a1.669,1.669,0,0,1,.159,2.176c-.611,1.054-8.1,13.451-22.528,13.451h-.248a28.492,28.492,0,0,1-8.726-1.409L24.793,46.3a1.669,1.669,0,1,1-2.36,2.36ZM4.476,24.539a23.524,23.524,0,0,0,19.4,9.957c12.326,0,18.514-9.817,18.6-9.957-.087-.139-6.275-9.957-18.6-9.957A23.526,23.526,0,0,0,4.476,24.539Z" transform="translate(0 0)" fill="#0062fe"/>
      <path id="iris" d="M7.689,15.379a7.746,7.746,0,0,1-1.55-.156,7.647,7.647,0,0,1-2.75-1.157A7.712,7.712,0,0,1,.6,10.682,7.651,7.651,0,0,1,.156,9.239a7.764,7.764,0,0,1,0-3.1A7.647,7.647,0,0,1,1.313,3.39,7.712,7.712,0,0,1,4.7.6,7.65,7.65,0,0,1,6.14.156a7.764,7.764,0,0,1,3.1,0,7.647,7.647,0,0,1,2.75,1.157A7.712,7.712,0,0,1,14.774,4.7a7.651,7.651,0,0,1,.448,1.443,7.764,7.764,0,0,1,0,3.1,7.647,7.647,0,0,1-1.157,2.75,7.712,7.712,0,0,1-3.383,2.786,7.651,7.651,0,0,1-1.443.448A7.746,7.746,0,0,1,7.689,15.379Zm0-11.384a3.695,3.695,0,1,0,3.695,3.695A3.7,3.7,0,0,0,7.689,3.995Z" transform="translate(15.725 16.934)" fill="#fff"/>
    </g>
    <path id="Path_8" data-name="Path 8" d="M422.043-87.568V-97.661a4.5,4.5,0,0,0-4.825-4.854A4.857,4.857,0,0,0,412.512-100v-2.131h-3.67v14.562h3.848v-8.347c0-2.22.977-3.345,2.989-3.345,1.835,0,2.486.622,2.486,2.871v8.82Zm14.888,4.612v-14.7a4.5,4.5,0,0,0-4.825-4.854A4.857,4.857,0,0,0,427.4-100v-2.131h-3.67v14.562h3.848v-8.347c0-2.22.977-3.345,2.989-3.345,1.835,0,2.486.622,2.486,2.871v13.432Z" transform="translate(-349.32 119.432)" fill="#fff"/>
    <path id="Path_5" data-name="Path 5" d="M11.146-116.526l6.66-19.653H13.543L9.281-122.386,4.99-136.179H.609l6.66,19.653Zm11.632,0v-14.562H18.93v14.562Zm0-16.309v-3.581H18.93v3.581Zm14.207,6.156c-.207-3.137-2.1-4.795-6.3-4.795-4.44,0-6.127,1.865-6.127,4.321a3.614,3.614,0,0,0,1.835,3.285,16.49,16.49,0,0,0,4.854,1.658c1.243.3,2.338.622,2.338,1.657,0,1.1-1.214,1.51-2.575,1.51-1.865,0-3.019-.8-3.019-2.161H24.021c.059,2.96,2.545,5.061,7.015,5.061,4.144,0,6.364-1.805,6.364-4.825a3.413,3.413,0,0,0-2.4-3.522c-1.125-.444-2.693-.77-4.351-1.243-1.569-.444-2.368-.8-2.368-1.658s.829-1.214,2.279-1.214c1.746,0,2.516.5,2.723,1.924Zm5.446,10.152v-14.562H38.584v14.562Zm0-16.309v-3.581H38.584v3.581Z" transform="translate(-0.609 148.391)" fill="#fff"/>
  </g>
</svg>
