<svg xmlns="http://www.w3.org/2000/svg" xmlns:xlink="http://www.w3.org/1999/xlink" width="2160" height="2160" viewBox="0 0 2160 2160">
  <defs>
    <clipPath id="clip-vision_studios_logo">
      <rect width="2160" height="2160"/>
    </clipPath>
  </defs>
  <g id="vision_studios_logo" clip-path="url(#clip-vision_studios_logo)">
    <g id="Group_1" data-name="Group 1" transform="translate(-347.243 51.609)">
      <g id="logo" transform="translate(760.743 355.458)">
        <path id="iris" d="M218.183,436.366a219.792,219.792,0,0,1-43.971-4.433A216.992,216.992,0,0,1,96.2,399.1,218.822,218.822,0,0,1,17.146,303.11,217.083,217.083,0,0,1,4.433,262.154a220.306,220.306,0,0,1,0-87.943A216.988,216.988,0,0,1,37.262,96.2a218.821,218.821,0,0,1,95.994-79.049A217.075,217.075,0,0,1,174.212,4.433a220.306,220.306,0,0,1,87.943,0,216.989,216.989,0,0,1,78.017,32.83,218.819,218.819,0,0,1,79.049,95.994,217.084,217.084,0,0,1,12.713,40.955,220.308,220.308,0,0,1,0,87.943,216.993,216.993,0,0,1-32.83,78.017A218.819,218.819,0,0,1,303.11,419.22a217.085,217.085,0,0,1-40.955,12.713A219.792,219.792,0,0,1,218.183,436.366Zm0-323.017A104.834,104.834,0,1,0,323.017,218.183,104.953,104.953,0,0,0,218.183,113.349Z" transform="translate(446.193 480.507)" fill="#fff"/>
        <path id="eye" d="M636.545,1380.691,13.87,758.015a47.356,47.356,0,0,1-2.149-64.675C24.852,668.762,120.81,499.631,326.65,395.513c93.891-47.49,209.747-81.45,350.707-82.839a680.193,680.193,0,0,1,216.556,32.594L629.483,80.84a47.355,47.355,0,0,1,66.97-66.97l622.676,622.676a47.369,47.369,0,0,1,4.476,61.8c-17.561,30.312-229.928,381.61-639.188,381.636-2.362,0-4.685-.011-7.061-.034-93.193-.919-175.421-16.076-247.575-39.965l273.734,273.734a47.355,47.355,0,0,1-66.97,66.97ZM127,696.313c2.47,3.945,178.241,282.512,550.361,282.512,349.764,0,525.33-278.567,527.8-282.512-2.469-3.945-178.034-282.512-527.8-282.512C305.236,413.8,129.466,692.368,127,696.313Z" transform="translate(0 0)" fill="#0062fe"/>
      </g>
    </g>
  </g>
</svg>
